<?xml version="1.0" encoding="UTF-8"?>
<svg id="Camada_2" data-name="Camada 2" xmlns="http://www.w3.org/2000/svg" viewBox="0 0 31.34 16.62">
  <defs>
    <style>
      .cls-1 {
        fill-rule: evenodd;
      }

      .cls-1, .cls-2 {
        fill: #fff;
        stroke-width: 0px;
      }
    </style>
  </defs>
  <path class="cls-2" d="m25.64,6.71l-.38,1.54h-.64l.38-1.54h-1.53l.16-.63h1.53l.38-1.51h.64l-.38,1.51h1.55l-.16.63h-1.55Z"/>
  <path class="cls-2" d="m7.39,8.99v-4.13l-1.17,1.37h-.44l-1.17-1.37v4.13h-.66V3.77h.56l1.45,1.75h.07l1.45-1.75h.56v5.22h-.66Z"/>
  <path class="cls-2" d="m12.25,8.99h-1.59c-.67,0-1.16-.49-1.16-1.14v-2.93c0-.66.49-1.14,1.16-1.14h1.59c.68,0,1.16.49,1.16,1.14v2.93c0,.66-.48,1.14-1.16,1.14Zm.52-4.13c0-.24-.2-.48-.46-.48h-1.72c-.26,0-.46.23-.46.48v3.04c0,.24.2.48.46.48h1.72c.26,0,.46-.23.46-.48v-3.04Z"/>
  <path class="cls-2" d="m18.42,7.76l-1.22,1.23h-.69l-1.22-1.23c-.24-.24-.3-.45-.3-.81v-3.18h.67v3.14c0,.22,0,.3.15.45l1,1.05h.07l1.02-1.05c.15-.15.15-.23.15-.45v-3.14h.67v3.18c0,.36-.06.57-.3.81Z"/>
  <path class="cls-2" d="m20.23,8.99V3.77h3.16v.61h-2.52v1.69h2.08l-.16.62h-1.92v1.68h2.52v.61h-3.16Z"/>
  <path class="cls-1" d="m10.42,11.21l-.1.49h.21c.12,0,.2,0,.24-.02.11-.03.17-.11.2-.23,0-.03,0-.05,0-.07,0-.08-.04-.13-.11-.16-.05-.01-.12-.02-.23-.02h-.21Zm1.85.87h.55l-.08-.84h0l-.46.84Zm-3.97-.08l-.1.48h.31c.19,0,.31-.08.34-.24,0-.02,0-.05,0-.07,0-.12-.09-.18-.26-.18h-.3Zm.17-.81l-.1.45h.26c.1,0,.17,0,.2-.03.08-.04.13-.1.15-.2.02-.08,0-.14-.04-.18-.03-.03-.09-.05-.17-.05h-.31Zm-.9,1.65l.43-2.01h1.1s.07,0,.09.01c.13.02.23.07.3.15.06.07.09.15.09.24,0,.03,0,.07-.01.1-.05.23-.23.39-.53.46h0c.26.05.4.18.4.38,0,.13-.04.24-.11.35-.07.1-.17.18-.29.24-.12.06-.31.08-.57.08h-.9Zm-3.6-.65h.56s-.01.06-.01.09c0,.14.09.21.28.21s.31-.07.35-.22c0-.02,0-.03,0-.05,0-.07-.05-.11-.14-.14l-.46-.12c-.26-.07-.39-.2-.39-.4,0-.04,0-.08.01-.12.04-.17.14-.31.29-.42.18-.12.4-.18.69-.18.47,0,.71.15.71.44,0,.05,0,.11-.02.18h-.56s.01-.07.01-.09c0-.12-.07-.18-.22-.18-.08,0-.15.02-.21.06-.06.04-.09.09-.1.14,0,.02,0,.03,0,.05,0,.07.05.12.16.15l.35.09c.15.04.26.08.32.12.1.07.16.16.16.29,0,.04,0,.09-.02.14-.04.21-.16.36-.36.47-.18.1-.4.15-.66.15-.34,0-.57-.08-.68-.23-.05-.07-.08-.16-.08-.26,0-.04,0-.1.02-.16Zm1.83.65l.43-2h1.53l-.08.38h-.97l-.09.42h.91l-.08.38h-.91l-.09.43h.99l-.08.39h-1.55Zm7.88,0l.43-2h1.53l-.08.38h-.97l-.09.42h.91l-.08.38h-.91l-.09.43h.99l-.08.39h-1.55Zm-2.42,0l1.23-2h.69l.37,2h-.64l-.05-.4h-.81l-.23.4h-1.17c0-.07,0-.22.03-.45,0-.08.01-.13.01-.16,0-.06-.02-.1-.05-.13-.03-.03-.09-.04-.18-.04h-.24l-.17.78h-.57l.43-2.01h.94c.16,0,.27,0,.32.01.13.02.22.06.27.13.05.06.08.14.08.24,0,.05,0,.1-.02.15-.04.17-.13.3-.27.37-.09.05-.2.08-.33.1h0c.15.01.25.04.3.1.05.04.07.12.07.22,0,.04,0,.1,0,.18-.02.25-.02.41-.01.49Z"/>
</svg>